<?xml version="1.0" encoding="UTF-8" standalone="no"?>
<svg
   xmlns:dc="http://purl.org/dc/elements/1.1/"
   xmlns:cc="http://creativecommons.org/ns#"
   xmlns:rdf="http://www.w3.org/1999/02/22-rdf-syntax-ns#"
   xmlns:svg="http://www.w3.org/2000/svg"
   xmlns="http://www.w3.org/2000/svg"
   xmlns:sodipodi="http://sodipodi.sourceforge.net/DTD/sodipodi-0.dtd"
   xmlns:inkscape="http://www.inkscape.org/namespaces/inkscape"
   width="139mm"
   height="75mm"
   viewBox="-61 -24 139 75"
   version="1.1"
   id="svg2"
   inkscape:version="0.91 r13725"
   sodipodi:docname="laboîte maker v1.5 pmma.svg">
  <metadata
     id="metadata14">
    <rdf:RDF>
      <cc:Work
         rdf:about="">
        <dc:format>image/svg+xml</dc:format>
        <dc:type
           rdf:resource="http://purl.org/dc/dcmitype/StillImage" />
      </cc:Work>
    </rdf:RDF>
  </metadata>
  <defs
     id="defs12" />
  <sodipodi:namedview
     pagecolor="#ffffff"
     bordercolor="#666666"
     borderopacity="1"
     objecttolerance="10"
     gridtolerance="10"
     guidetolerance="10"
     inkscape:pageopacity="0"
     inkscape:pageshadow="2"
     inkscape:window-width="1440"
     inkscape:window-height="784"
     id="namedview10"
     showgrid="false"
     inkscape:zoom="1.6364828"
     inkscape:cx="129.9516"
     inkscape:cy="141.93856"
     inkscape:window-x="0"
     inkscape:window-y="0"
     inkscape:window-maximized="1"
     inkscape:current-layer="svg2" />
  <title
     id="title4">svgOutput</title>
  <desc
     id="desc6">made with tinkercad</desc>
  <path
     d="M 77 44 L 76.90599822998047 45.40599822998047 L 76.625 46.625 L 76.15599822998047 47.65599822998047 L 75.5 48.5 L 75.00299835205078 48.886295318603516 L 74.65599822998047 49.15599822998047 L 73.625 49.625 L 72.99800109863281 49.769535064697266 L 72.40599822998047 49.90599822998047 L 71 50 L 0 50 L -54 50 L -55.40599822998047 49.90599822998047 L -55.99800109863281 49.769535064697266 L -56.625 49.625 L -57.65599822998047 49.15599822998047 L -58.00299835205078 48.886295318603516 L -58.5 48.5 L -59.15599822998047 47.65599822998047 L -59.625 46.625 L -59.90599822998047 45.40599822998047 L -60 44 L -60 -17 L -59.90599822998047 -18.4060001373291 L -59.625 -19.625 L -59.15599822998047 -20.6560001373291 L -58.5 -21.5 L -58.00299835205078 -21.886293411254883 L -57.65599822998047 -22.1560001373291 L -56.625 -22.625 L -55.99800109863281 -22.769533157348633 L -55.40599822998047 -22.9060001373291 L -54 -23 L 0 -23 L 71 -23 L 72.40599822998047 -22.9060001373291 L 72.99800109863281 -22.769533157348633 L 73.625 -22.625 L 74.65599822998047 -22.1560001373291 L 75.00299835205078 -21.886293411254883 L 75.5 -21.5 L 76.15599822998047 -20.6560001373291 L 76.625 -19.625 L 76.90599822998047 -18.4060001373291 L 77 -17 L 77 44 M 75.00299835205078 5.498000144958496 L 72.99800109863281 5.498000144958496 L 72.99800109863281 21.50200080871582 L 75.00299835205078 21.50200080871582 L 75.00299835205078 5.498000144958496 M -55.99800109863281 5.498000144958496 L -58.00299835205078 5.498000144958496 L -58.00299835205078 21.50200080871582 L -55.99800109863281 21.50200080871582 L -55.99800109863281 5.498000144958496 z"
     fill="none"
     stroke="rgb(0,0,255)"
     stroke-width="0.01mm"
     id="path8"
     style="stroke:#ff0000" />
  <g
     style="font-style:normal;font-weight:normal;font-size:3.52777791px;line-height:125%;font-family:sans-serif;letter-spacing:0px;word-spacing:0px;fill:#000000;fill-opacity:1;stroke:none;stroke-width:1px;stroke-linecap:butt;stroke-linejoin:miter;stroke-opacity:1"
     id="text3342">
    <path
       d="m -48.340512,46.761459 0.40005,0.1016 0,0.3429 -1.2954,0 -0.0762,-0.3429 0.40005,-0.0889 0,-3.7338 -0.36195,0.0254 -0.0635,-0.381 0.79375,-0.13335 0.2032,0.2159 0,3.99415 z"
       style="font-style:normal;font-variant:normal;font-weight:normal;font-stretch:normal;font-size:6.35000038px;font-family:Kreon;-inkscape-font-specification:Kreon"
       id="path3347" />
    <path
       d="m -45.89725,46.945609 q -0.2794,0.2921 -0.7112,0.2921 -0.4318,0 -0.6985,-0.2413 -0.26035,-0.2413 -0.26035,-0.57785 0,-0.33655 0.13335,-0.5334 0.1397,-0.19685 0.36195,-0.31115 0.38735,-0.19685 1.13665,-0.20955 l 0,-0.45085 q 0,-0.127 -0.12065,-0.2286 -0.1143,-0.10795 -0.36195,-0.10795 -0.23495,0 -0.34925,0.1016 l -0.127,0.41275 -0.66675,-0.19685 q 0.14605,-0.52705 0.71755,-0.7112 0.2032,-0.0635 0.4572,-0.0635 0.4953,0 0.75565,0.24765 0.2667,0.24765 0.2667,0.6477 l 0,1.6256 q 0,0.13335 0.0889,0.13335 0.04445,0 0.13335,-0.04445 l 0.1397,0.33655 q -0.19685,0.1651 -0.43815,0.1651 -0.36195,0 -0.4572,-0.28575 z m -0.9017,-0.254 q 0.06985,0.04445 0.14605,0.0635 0.0762,0.0127 0.17145,0.0127 0.09525,0 0.1905,-0.0381 0.1016,-0.04445 0.17145,-0.1016 0.13335,-0.1016 0.18415,-0.254 l 0,-0.5461 q -0.4191,0 -0.61595,0.06985 -0.19685,0.0635 -0.3048,0.17145 -0.10795,0.1016 -0.10795,0.26035 0,0.1524 0.04445,0.23495 0.0508,0.0762 0.12065,0.127 z"
       style="font-style:normal;font-variant:normal;font-weight:normal;font-stretch:normal;font-size:6.35000038px;font-family:Kreon;-inkscape-font-specification:Kreon"
       id="path3349" />
    <path
       d="m -43.966949,47.085309 q -0.3048,0.1524 -0.3302,0.15875 l -0.14605,-0.0889 0,-4.1148 -0.3683,0.0254 -0.05715,-0.381 0.80645,-0.12065 0.1905,0.2032 0,1.524 q 0.2667,-0.17145 0.5842,-0.17145 0.317501,0 0.546101,0.10795 0.2286,0.10795 0.3937,0.3048 0.34925,0.4191 0.34925,1.1049 0,0.8636 -0.4699,1.27635 -0.36195,0.3175 -0.889001,0.3175 -0.34925,0 -0.6096,-0.14605 z m 0.6096,-2.48285 q -0.1524,0 -0.29845,0.0635 -0.1397,0.05715 -0.2159,0.14605 l 0,1.778 q 0.0508,0.0635 0.1905,0.1143 0.14605,0.0508 0.28575,0.0508 0.1397,0 0.27305,-0.04445 0.133351,-0.0508 0.247651,-0.1778 0.27305,-0.2794 0.27305,-0.85725 0,-0.5461 -0.23495,-0.8255 -0.2032,-0.24765 -0.520701,-0.24765 z"
       style="font-style:normal;font-variant:normal;font-weight:normal;font-stretch:normal;font-size:6.35000038px;font-family:Kreon;-inkscape-font-specification:Kreon"
       id="path3351" />
    <path
       d="m -40.948913,45.720059 q 0,0.508 0.2032,0.7747 0.2032,0.26035 0.5334,0.26035 0.3302,0 0.53975,-0.254 0.20955,-0.26035 0.20955,-0.7874 0,-0.52705 -0.2032,-0.81915 -0.19685,-0.29845 -0.53975,-0.29845 -0.36195,0 -0.5588,0.31115 -0.18415,0.29845 -0.18415,0.8128 z m -0.60325,-0.06985 q 0,-0.3683 0.10795,-0.65405 0.10795,-0.28575 0.29845,-0.4826 0.3683,-0.3937 0.9398,-0.3937 0.5842,0 0.9652,0.4191 0.381001,0.4191 0.381001,1.12395 0,0.7366 -0.406401,1.16205 -0.37465,0.4064 -0.9398,0.4064 -0.59055,0 -0.9652,-0.4318 -0.381,-0.42545 -0.381,-1.14935 z"
       style="font-style:normal;font-variant:normal;font-weight:normal;font-stretch:normal;font-size:6.35000038px;font-family:Kreon;-inkscape-font-specification:Kreon"
       id="path3353" />
    <path
       d="m -37.943874,42.792709 0.1524,0 0.79375,0.9525 -0.03175,0.0508 -0.42545,0 -0.4191,-0.3429 -0.42545,0.3429 -0.41275,0 -0.0254,-0.04445 0.79375,-0.95885 z m 0.4445,3.96875 0.37465,0.1016 0,0.3429 -1.27,0 -0.06985,-0.3429 0.3937,-0.0889 0,-2.159 -0.34925,0.0254 -0.0635,-0.381 0.78105,-0.1397 0.2032,0.2032 0,2.4384 z"
       style="font-style:normal;font-variant:normal;font-weight:normal;font-stretch:normal;font-size:6.35000038px;font-family:Kreon;-inkscape-font-specification:Kreon"
       id="path3355" />
    <path
       d="m -35.15166,46.564609 q 0.0127,0.04445 0.13335,0.4191 -0.0889,0.08255 -0.26035,0.1651 -0.17145,0.08255 -0.4445,0.08255 -0.27305,0 -0.46355,-0.1651 -0.18415,-0.1651 -0.18415,-0.53975 l 0,-1.9304 -0.5207,0 -0.0889,-0.41275 0.04445,-0.0635 0.56515,0 0,-1.06045 0.508,-0.12065 0.03175,0.09525 0,1.08585 0.6604,0 q 0.03175,0 0.03175,0.0381 l 0,0.43815 -0.69215,0 0,1.82245 q 0,0.2032 0.05715,0.2667 0.0635,0.05715 0.1524,0.05715 0.09525,0 0.15875,-0.01905 0.0635,-0.01905 0.12065,-0.0508 0.12065,-0.0508 0.1905,-0.10795 z"
       style="font-style:normal;font-variant:normal;font-weight:normal;font-stretch:normal;font-size:6.35000038px;font-family:Kreon;-inkscape-font-specification:Kreon"
       id="path3357" />
    <path
       d="m -32.356271,44.958059 q 0,0.19685 -0.06985,0.38735 -0.0635,0.18415 -0.254,0.33655 -0.4318,0.3429 -1.4097,0.3556 0.1016,0.50165 0.51435,0.6604 0.14605,0.05715 0.3175,0.05715 0.17145,0 0.2921,-0.0254 0.12065,-0.03175 0.20955,-0.06985 0.17145,-0.08255 0.2413,-0.1524 l 0.1397,0.4445 q -0.06985,0.06985 -0.23495,0.1397 -0.635,0.26035 -1.2446,0.04445 -0.55245,-0.19685 -0.762,-0.76835 -0.10795,-0.28575 -0.10795,-0.66675 0,-0.38735 0.1143,-0.67945 0.1143,-0.29845 0.3048,-0.4953 0.381,-0.4064 0.9525,-0.4064 0.4191,0 0.70485,0.22225 0.2921,0.23495 0.2921,0.61595 z m -0.60325,0.0508 q 0,-0.1778 -0.09525,-0.2921 -0.09525,-0.1143 -0.2794,-0.1143 -0.1778,0 -0.3048,0.05715 -0.12065,0.05715 -0.22225,0.17145 -0.22225,0.26035 -0.26035,0.7366 0.46355,0 0.69215,-0.06985 0.2286,-0.0762 0.34925,-0.1905 0.12065,-0.12065 0.12065,-0.29845 z"
       style="font-style:normal;font-variant:normal;font-weight:normal;font-stretch:normal;font-size:6.35000038px;font-family:Kreon;-inkscape-font-specification:Kreon"
       id="path3359" />
  </g>
</svg>
